<mxfile host="app.diagrams.net" modified="2024-05-24T20:01:27.825Z" agent="Mozilla/5.0 (Windows NT 10.0; Win64; x64) AppleWebKit/537.36 (KHTML, like Gecko) Chrome/125.0.0.0 Safari/537.36 Edg/125.0.0.0" version="24.4.8" etag="B-4cc-5L2Z0hbUKzaZJb" type="github">
  <diagram name="Page-1" id="w0bieG8Uo856m0MkJxk9">
    <mxGraphModel>
      <root>
        <mxCell id="0" />
        <mxCell id="1" parent="0" />
      </root>
    </mxGraphModel>
  </diagram>
</mxfile>
